<svg xmlns="http://www.w3.org/2000/svg" xmlns:xlink="http://www.w3.org/1999/xlink" width="200" zoomAndPan="magnify" viewBox="0 0 300 74.999997" height="100" preserveAspectRatio="xMidYMid meet" version="1.0"><defs><g/><clipPath id="6451d4f261"><path d="M 7.5 7.5 L 67.5 7.5 L 67.5 67.5 L 7.5 67.5 Z M 7.5 7.5 " clip-rule="nonzero"/></clipPath><clipPath id="a5dfbc77db"><path d="M 37.5 7.5 C 20.929688 7.5 7.5 20.929688 7.5 37.5 C 7.5 54.070312 20.929688 67.5 37.5 67.5 C 54.070312 67.5 67.5 54.070312 67.5 37.5 C 67.5 20.929688 54.070312 7.5 37.5 7.5 Z M 37.5 7.5 " clip-rule="nonzero"/></clipPath></defs><g clip-path="url(#6451d4f261)"><g clip-path="url(#a5dfbc77db)"><path fill="#633974" d="M 7.5 7.5 L 67.5 7.5 L 67.5 67.5 L 7.5 67.5 Z M 7.5 7.5 " fill-opacity="1" fill-rule="nonzero"/></g></g><g fill="#ffffff" fill-opacity="1"><g transform="translate(23.787505, 51.749995)"><g><path d="M 11.25 0.46875 C 8.519531 0.46875 6.253906 -0.046875 4.453125 -1.078125 C 2.660156 -2.117188 1.351562 -3.507812 0.53125 -5.25 L 4.109375 -9.609375 L 4.65625 -9.609375 C 5.238281 -8.203125 6.066406 -7.085938 7.140625 -6.265625 C 8.222656 -5.453125 9.476562 -5.046875 10.90625 -5.046875 C 12.5 -5.046875 13.679688 -5.507812 14.453125 -6.4375 C 15.234375 -7.375 15.625 -8.890625 15.625 -10.984375 L 15.625 -32.125 L 21.953125 -32.125 L 21.953125 -10.875 C 21.953125 -6.988281 21.066406 -4.125 19.296875 -2.28125 C 17.535156 -0.445312 14.851562 0.46875 11.25 0.46875 Z M 11.25 0.46875 "/></g></g></g><g fill="#633974" fill-opacity="1"><g transform="translate(82.780465, 47.999995)"><g><path d="M 13.015625 -9.234375 C 13.015625 -7.816406 12.835938 -6.523438 12.484375 -5.359375 C 12.128906 -4.191406 11.59375 -3.191406 10.875 -2.359375 C 10.15625 -1.523438 9.253906 -0.875 8.171875 -0.40625 C 7.085938 0.0507812 5.8125 0.28125 4.34375 0.28125 C 3.675781 0.28125 3.019531 0.242188 2.375 0.171875 C 1.726562 0.0976562 1.050781 -0.015625 0.34375 -0.171875 L 0.671875 -3.625 C 0.703125 -3.925781 0.820312 -4.171875 1.03125 -4.359375 C 1.238281 -4.546875 1.535156 -4.640625 1.921875 -4.640625 C 2.117188 -4.640625 2.363281 -4.601562 2.65625 -4.53125 C 2.945312 -4.46875 3.296875 -4.4375 3.703125 -4.4375 C 4.273438 -4.4375 4.773438 -4.515625 5.203125 -4.671875 C 5.628906 -4.835938 5.984375 -5.101562 6.265625 -5.46875 C 6.546875 -5.832031 6.753906 -6.3125 6.890625 -6.90625 C 7.035156 -7.507812 7.109375 -8.25 7.109375 -9.125 L 7.109375 -25.5 L 13.015625 -25.5 Z M 13.015625 -9.234375 "/></g></g></g><g fill="#633974" fill-opacity="1"><g transform="translate(99.769522, 47.999995)"><g><path d="M 10.203125 -18.421875 C 11.578125 -18.421875 12.828125 -18.203125 13.953125 -17.765625 C 15.085938 -17.335938 16.0625 -16.722656 16.875 -15.921875 C 17.6875 -15.117188 18.316406 -14.140625 18.765625 -12.984375 C 19.210938 -11.835938 19.4375 -10.550781 19.4375 -9.125 C 19.4375 -7.675781 19.210938 -6.367188 18.765625 -5.203125 C 18.316406 -4.046875 17.6875 -3.0625 16.875 -2.25 C 16.0625 -1.4375 15.085938 -0.8125 13.953125 -0.375 C 12.828125 0.0625 11.578125 0.28125 10.203125 0.28125 C 8.816406 0.28125 7.550781 0.0625 6.40625 -0.375 C 5.269531 -0.8125 4.289062 -1.4375 3.46875 -2.25 C 2.644531 -3.0625 2.007812 -4.046875 1.5625 -5.203125 C 1.113281 -6.367188 0.890625 -7.675781 0.890625 -9.125 C 0.890625 -10.550781 1.113281 -11.835938 1.5625 -12.984375 C 2.007812 -14.140625 2.644531 -15.117188 3.46875 -15.921875 C 4.289062 -16.722656 5.269531 -17.335938 6.40625 -17.765625 C 7.550781 -18.203125 8.816406 -18.421875 10.203125 -18.421875 Z M 10.203125 -3.75 C 11.453125 -3.75 12.367188 -4.1875 12.953125 -5.0625 C 13.546875 -5.945312 13.84375 -7.285156 13.84375 -9.078125 C 13.84375 -10.878906 13.546875 -12.21875 12.953125 -13.09375 C 12.367188 -13.96875 11.453125 -14.40625 10.203125 -14.40625 C 8.921875 -14.40625 7.984375 -13.96875 7.390625 -13.09375 C 6.796875 -12.21875 6.5 -10.878906 6.5 -9.078125 C 6.5 -7.285156 6.796875 -5.945312 7.390625 -5.0625 C 7.984375 -4.1875 8.921875 -3.75 10.203125 -3.75 Z M 10.203125 -3.75 "/></g></g></g><g fill="#633974" fill-opacity="1"><g transform="translate(121.849928, 47.999995)"><g><path d="M 7.265625 -4.9375 C 7.671875 -4.488281 8.113281 -4.171875 8.59375 -3.984375 C 9.070312 -3.796875 9.554688 -3.703125 10.046875 -3.703125 C 10.554688 -3.703125 11.023438 -3.796875 11.453125 -3.984375 C 11.890625 -4.179688 12.257812 -4.5 12.5625 -4.9375 C 12.875 -5.375 13.117188 -5.953125 13.296875 -6.671875 C 13.472656 -7.390625 13.5625 -8.273438 13.5625 -9.328125 C 13.5625 -10.234375 13.492188 -11.003906 13.359375 -11.640625 C 13.222656 -12.273438 13.023438 -12.796875 12.765625 -13.203125 C 12.503906 -13.609375 12.175781 -13.898438 11.78125 -14.078125 C 11.394531 -14.253906 10.953125 -14.34375 10.453125 -14.34375 C 9.785156 -14.34375 9.207031 -14.195312 8.71875 -13.90625 C 8.226562 -13.613281 7.742188 -13.191406 7.265625 -12.640625 Z M 7.265625 -16.21875 C 7.960938 -16.882812 8.726562 -17.414062 9.5625 -17.8125 C 10.394531 -18.21875 11.328125 -18.421875 12.359375 -18.421875 C 13.378906 -18.421875 14.3125 -18.210938 15.15625 -17.796875 C 16 -17.378906 16.71875 -16.78125 17.3125 -16 C 17.90625 -15.226562 18.359375 -14.289062 18.671875 -13.1875 C 18.992188 -12.09375 19.15625 -10.867188 19.15625 -9.515625 C 19.15625 -8.046875 18.96875 -6.707031 18.59375 -5.5 C 18.226562 -4.300781 17.703125 -3.273438 17.015625 -2.421875 C 16.335938 -1.566406 15.523438 -0.898438 14.578125 -0.421875 C 13.628906 0.046875 12.582031 0.28125 11.4375 0.28125 C 10.894531 0.28125 10.40625 0.226562 9.96875 0.125 C 9.539062 0.0195312 9.144531 -0.125 8.78125 -0.3125 C 8.425781 -0.507812 8.097656 -0.742188 7.796875 -1.015625 C 7.492188 -1.285156 7.207031 -1.578125 6.9375 -1.890625 L 6.734375 -0.984375 C 6.640625 -0.609375 6.488281 -0.347656 6.28125 -0.203125 C 6.070312 -0.0664062 5.789062 0 5.4375 0 L 1.84375 0 L 1.84375 -26.203125 L 7.265625 -26.203125 Z M 7.265625 -16.21875 "/></g></g></g><g fill="#633974" fill-opacity="1"><g transform="translate(143.702894, 47.999995)"><g><path d="M 7.390625 -18.140625 L 7.390625 0 L 1.953125 0 L 1.953125 -18.140625 Z M 7.9375 -23.125 C 7.9375 -22.6875 7.847656 -22.273438 7.671875 -21.890625 C 7.503906 -21.515625 7.269531 -21.179688 6.96875 -20.890625 C 6.664062 -20.609375 6.3125 -20.382812 5.90625 -20.21875 C 5.5 -20.050781 5.070312 -19.96875 4.625 -19.96875 C 4.175781 -19.96875 3.757812 -20.050781 3.375 -20.21875 C 2.988281 -20.382812 2.644531 -20.609375 2.34375 -20.890625 C 2.050781 -21.179688 1.820312 -21.515625 1.65625 -21.890625 C 1.488281 -22.273438 1.40625 -22.6875 1.40625 -23.125 C 1.40625 -23.5625 1.488281 -23.972656 1.65625 -24.359375 C 1.820312 -24.742188 2.050781 -25.082031 2.34375 -25.375 C 2.644531 -25.664062 2.988281 -25.890625 3.375 -26.046875 C 3.757812 -26.210938 4.175781 -26.296875 4.625 -26.296875 C 5.070312 -26.296875 5.5 -26.210938 5.90625 -26.046875 C 6.3125 -25.890625 6.664062 -25.664062 6.96875 -25.375 C 7.269531 -25.082031 7.503906 -24.742188 7.671875 -24.359375 C 7.847656 -23.972656 7.9375 -23.5625 7.9375 -23.125 Z M 7.9375 -23.125 "/></g></g></g><g fill="#633974" fill-opacity="1"><g transform="translate(154.795783, 47.999995)"><g><path d="M 12.84375 -13.28125 C 12.4375 -13.726562 11.992188 -14.039062 11.515625 -14.21875 C 11.035156 -14.40625 10.535156 -14.5 10.015625 -14.5 C 9.503906 -14.5 9.039062 -14.398438 8.625 -14.203125 C 8.207031 -14.003906 7.84375 -13.6875 7.53125 -13.25 C 7.21875 -12.8125 6.972656 -12.242188 6.796875 -11.546875 C 6.628906 -10.847656 6.546875 -10.003906 6.546875 -9.015625 C 6.546875 -8.054688 6.613281 -7.25 6.75 -6.59375 C 6.894531 -5.945312 7.09375 -5.421875 7.34375 -5.015625 C 7.59375 -4.609375 7.890625 -4.316406 8.234375 -4.140625 C 8.585938 -3.972656 8.984375 -3.890625 9.421875 -3.890625 C 9.816406 -3.890625 10.171875 -3.925781 10.484375 -4 C 10.804688 -4.070312 11.101562 -4.175781 11.375 -4.3125 C 11.644531 -4.457031 11.898438 -4.640625 12.140625 -4.859375 C 12.378906 -5.078125 12.613281 -5.320312 12.84375 -5.59375 Z M 18.265625 -18.140625 L 18.265625 5.75 L 12.84375 5.75 L 12.84375 -1.984375 C 12.15625 -1.304688 11.382812 -0.757812 10.53125 -0.34375 C 9.675781 0.0703125 8.675781 0.28125 7.53125 0.28125 C 6.582031 0.28125 5.703125 0.0703125 4.890625 -0.34375 C 4.085938 -0.769531 3.394531 -1.378906 2.8125 -2.171875 C 2.226562 -2.960938 1.769531 -3.929688 1.4375 -5.078125 C 1.101562 -6.234375 0.9375 -7.546875 0.9375 -9.015625 C 0.9375 -10.367188 1.125 -11.625 1.5 -12.78125 C 1.875 -13.945312 2.398438 -14.953125 3.078125 -15.796875 C 3.765625 -16.640625 4.585938 -17.300781 5.546875 -17.78125 C 6.503906 -18.257812 7.5625 -18.5 8.71875 -18.5 C 9.257812 -18.5 9.753906 -18.453125 10.203125 -18.359375 C 10.648438 -18.265625 11.054688 -18.128906 11.421875 -17.953125 C 11.785156 -17.773438 12.125 -17.5625 12.4375 -17.3125 C 12.757812 -17.070312 13.066406 -16.804688 13.359375 -16.515625 L 13.578125 -17.234375 C 13.785156 -17.835938 14.226562 -18.140625 14.90625 -18.140625 Z M 18.265625 -18.140625 "/></g></g></g><g fill="#633974" fill-opacity="1"><g transform="translate(176.64875, 47.999995)"><g><path d="M 18.109375 -18.140625 L 18.109375 0 L 14.75 0 C 14.070312 0 13.628906 -0.300781 13.421875 -0.90625 L 13.109375 -1.953125 C 12.753906 -1.617188 12.390625 -1.3125 12.015625 -1.03125 C 11.648438 -0.757812 11.253906 -0.523438 10.828125 -0.328125 C 10.398438 -0.140625 9.9375 0.00390625 9.4375 0.109375 C 8.945312 0.222656 8.410156 0.28125 7.828125 0.28125 C 6.828125 0.28125 5.945312 0.109375 5.1875 -0.234375 C 4.425781 -0.578125 3.78125 -1.054688 3.25 -1.671875 C 2.726562 -2.296875 2.332031 -3.023438 2.0625 -3.859375 C 1.789062 -4.703125 1.65625 -5.625 1.65625 -6.625 L 1.65625 -18.140625 L 7.09375 -18.140625 L 7.09375 -6.625 C 7.09375 -5.726562 7.296875 -5.035156 7.703125 -4.546875 C 8.109375 -4.054688 8.707031 -3.8125 9.5 -3.8125 C 10.09375 -3.8125 10.648438 -3.9375 11.171875 -4.1875 C 11.691406 -4.4375 12.195312 -4.78125 12.6875 -5.21875 L 12.6875 -18.140625 Z M 18.109375 -18.140625 "/></g></g></g><g fill="#633974" fill-opacity="1"><g transform="translate(198.344245, 47.999995)"><g><path d="M 13.125 -11.25 C 13.125 -11.6875 13.066406 -12.109375 12.953125 -12.515625 C 12.847656 -12.921875 12.671875 -13.285156 12.421875 -13.609375 C 12.171875 -13.929688 11.835938 -14.191406 11.421875 -14.390625 C 11.015625 -14.585938 10.519531 -14.6875 9.9375 -14.6875 C 8.914062 -14.6875 8.113281 -14.390625 7.53125 -13.796875 C 6.945312 -13.210938 6.5625 -12.363281 6.375 -11.25 Z M 6.296875 -8.109375 C 6.472656 -6.585938 6.929688 -5.484375 7.671875 -4.796875 C 8.421875 -4.117188 9.382812 -3.78125 10.5625 -3.78125 C 11.195312 -3.78125 11.738281 -3.851562 12.1875 -4 C 12.644531 -4.15625 13.050781 -4.328125 13.40625 -4.515625 C 13.769531 -4.703125 14.097656 -4.867188 14.390625 -5.015625 C 14.691406 -5.171875 15.003906 -5.25 15.328125 -5.25 C 15.765625 -5.25 16.09375 -5.09375 16.3125 -4.78125 L 17.890625 -2.828125 C 17.328125 -2.191406 16.722656 -1.671875 16.078125 -1.265625 C 15.429688 -0.867188 14.765625 -0.554688 14.078125 -0.328125 C 13.398438 -0.0976562 12.71875 0.0546875 12.03125 0.140625 C 11.34375 0.234375 10.691406 0.28125 10.078125 0.28125 C 8.804688 0.28125 7.613281 0.0703125 6.5 -0.34375 C 5.382812 -0.757812 4.410156 -1.375 3.578125 -2.1875 C 2.742188 -3 2.082031 -4.007812 1.59375 -5.21875 C 1.113281 -6.4375 0.875 -7.851562 0.875 -9.46875 C 0.875 -10.675781 1.082031 -11.820312 1.5 -12.90625 C 1.914062 -14 2.507812 -14.953125 3.28125 -15.765625 C 4.050781 -16.585938 4.988281 -17.234375 6.09375 -17.703125 C 7.195312 -18.179688 8.441406 -18.421875 9.828125 -18.421875 C 11.035156 -18.421875 12.132812 -18.234375 13.125 -17.859375 C 14.125 -17.492188 14.984375 -16.953125 15.703125 -16.234375 C 16.421875 -15.523438 16.976562 -14.65625 17.375 -13.625 C 17.78125 -12.59375 17.984375 -11.421875 17.984375 -10.109375 C 17.984375 -9.703125 17.96875 -9.367188 17.9375 -9.109375 C 17.90625 -8.859375 17.84375 -8.65625 17.75 -8.5 C 17.65625 -8.351562 17.523438 -8.25 17.359375 -8.1875 C 17.203125 -8.132812 17.003906 -8.109375 16.765625 -8.109375 Z M 6.296875 -8.109375 "/></g></g></g></svg>